<svg version="1.1" xmlns="http://www.w3.org/2000/svg" viewBox="-1717.6792681624017 -3648.1500858192244 7765.274977971889 7765.293525610085"><desc>Created with Snap</desc><defs><linearGradient x1="-1717.6792681624017" y1="-3648.1500858192244" x2="6047.595709809487" y2="-3648.1500858192244" gradientUnits="userSpaceOnUse" id="linearGradientSl303gwd1w"><stop offset="0%" stop-color="#222e49"></stop><stop offset="100%" stop-color="#5064ae"></stop></linearGradient></defs><g><rect x="-1717.6792681624017" y="-3648.1500858192244" width="7765.274977971889" height="7765.293525610085" fill="url('#linearGradientSl303gwd1w')"></rect><g transform="matrix(18.9928,0,0,18.9928,-1633.5981,-3582.3449)">
<g id="gSl303gwd1f">
	<path fill="#ffffff" d="M369.78955,219.42564l18.46289-18.46289l-18.46289-18.46289V31.17271H218.4624l-18.46289-18.46289
		l-18.46277,18.46289H30.20947v151.32812l-18.46191,18.46191l18.46191,18.46191v151.32811h151.32727l18.46277,18.46289
		l18.46289-18.46289h151.32715V219.42564z M375.52393,200.96275l-5.73438,5.73438v-11.46875L375.52393,200.96275z
		 M232.42529,344.06137h-64.85138L56.90088,233.3878v-64.8501L167.57391,57.86412h64.85138l110.67285,110.67285v64.85156
		L232.42529,344.06137z M343.09814,246.11705v97.94432h-97.94434L343.09814,246.11705z M223.42529,353.06137l-8.69141,8.69141
		H185.2652l-8.69135-8.69141H223.42529z M56.90088,246.11632l97.94458,97.94505H56.90088V246.11632z M47.90088,224.38756
		l-8.69141-8.69141v-29.4668l8.69141-8.69141V224.38756z M56.90088,155.80919V57.86412h97.94458L56.90088,155.80919z
		 M176.57385,48.86412l8.69135-8.69141h29.46869l8.69141,8.69141H176.57385z M343.09814,155.80846l-97.94434-97.94434h97.94434
		V155.80846z M352.09814,177.53697l8.69141,8.69141v29.46875l-8.69141,8.69141V177.53697z M360.78955,40.17271v133.32715
		l-8.69141-8.69141V48.86412H236.15381l-8.69141-8.69141H360.78955z M199.99951,25.43834l5.73438,5.73438H194.2652
		L199.99951,25.43834z M39.20947,40.17271h133.32727l-8.69135,8.69141H47.90088v115.94507l-8.69141,8.69165V40.17271z
		 M24.47607,200.96275l5.7334-5.7334v11.4668L24.47607,200.96275z M39.20947,361.75278V228.42467l8.69141,8.69165v115.94505
		H163.8454l8.69135,8.69141H39.20947z M199.99951,376.48715l-5.73431-5.73438h11.46869L199.99951,376.48715z M227.4624,361.75278
		l8.69141-8.69141h115.94434V237.11705l8.69141-8.69141v133.32713H227.4624z" style=""></path>
</g>


<desc>Created with Snap</desc><defs></defs></g><g><g transform="matrix(0.5,0,0,-0.5,0,0)"><path d="M402 0L158 0L158 1465L478 1465L921 407L1367 1465L1683 1465L1683 0L1433 0L1433 724L1441 1139L1404 1029L1029 100L797 100L430 1034L393 1144L402 720L402 0ZM2242 0L1980 0L1980 1099L2242 1099L2242 0ZM2243 1259L1980 1259L1980 1483L2243 1483L2243 1259ZM2900 -15Q2787 -15 2712 11Q2638 38 2595 96Q2552 154 2535 234Q2518 314 2518 433L2518 1504L2780 1521L2780 438Q2780 290 2815 237Q2850 185 2951 185Q3001 185 3078 196L3085 9Q3084 9 3060 4Q3037 -1 3015 -5Q2994 -8 2961 -12Q2928 -15 2900 -15ZM3505 -21Q3352 -21 3257 63Q3163 148 3163 307Q3163 478 3275 560Q3387 643 3613 665Q3644 669 3680 673Q3716 677 3761 681Q3806 685 3832 688L3832 746Q3832 846 3786 891Q3740 937 3646 937Q3512 937 3315 862Q3314 865 3282 953Q3250 1041 3249 1043Q3443 1126 3669 1126Q3891 1126 3992 1029Q4093 933 4093 717L4093 0L3899 0Q3898 4 3877 67Q3856 130 3856 134Q3774 54 3695 16Q3617 -21 3505 -21ZM3576 165Q3667 165 3734 208Q3802 252 3831 314L3831 526Q3828 526 3778 522Q3729 518 3725 518Q3566 504 3492 458Q3418 412 3418 310Q3418 240 3459 202Q3500 165 3576 165ZM4728 -492L4577 -492L4562 -280L4695 -280Q4926 -280 5018 -219Q5110 -157 5110 7Q5110 74 5104 152Q5078 116 5054 92Q5031 69 4995 46Q4960 23 4910 11Q4861 0 4798 0Q4580 0 4439 157Q4299 314 4299 562Q4299 694 4338 802Q4377 911 4444 981Q4511 1051 4598 1088Q4686 1126 4785 1126Q5006 1126 5114 965L5132 1099L5366 1099L5366 78Q5366 -4 5358 -70Q5350 -135 5330 -196Q5310 -256 5277 -301Q5245 -346 5196 -383Q5147 -420 5080 -444Q5014 -467 4926 -480Q4838 -492 4728 -492ZM4840 183Q5111 183 5114 546L5114 584Q5112 747 5046 836Q4980 925 4853 926Q4709 926 4635 827Q4561 729 4561 562Q4561 401 4635 292Q4710 183 4840 183ZM5887 0L5625 0L5625 1099L5845 1099L5879 931Q5987 1104 6192 1104Q6235 1104 6262 1100L6258 881Q6218 887 6175 887Q6030 887 5958 810Q5887 733 5887 596L5887 0ZM6901 178Q7034 178 7101 275Q7168 372 7168 553Q7168 736 7101 832Q7034 928 6899 928Q6766 928 6698 831Q6631 735 6631 552Q6631 372 6699 275Q6767 178 6901 178ZM6894 -21Q6650 -21 6510 137Q6370 295 6370 553Q6370 819 6510 972Q6650 1126 6905 1126Q7151 1126 7290 969Q7430 813 7430 553Q7430 290 7289 134Q7148 -21 6894 -21ZM7995 -20Q7752 -20 7606 63L7633 260Q7699 224 7801 195Q7903 167 7987 167Q8074 167 8122 199Q8171 232 8172 295Q8172 352 8126 385Q8081 418 7953 467Q7909 483 7896 488Q7744 547 7677 619Q7610 692 7610 816Q7610 966 7718 1046Q7827 1126 8021 1126Q8231 1126 8390 1047L8325 866Q8168 939 8026 939Q7947 939 7902 912Q7858 886 7858 832Q7858 781 7901 752Q7944 724 8069 678Q8073 677 8095 669Q8117 661 8129 656Q8280 601 8351 524Q8422 448 8422 325Q8421 160 8310 70Q8199 -20 7995 -20Z" fill="#ffffff" style=""></path></g></g><g transform="matrix(1,0,0,1,1173,1298.7)"><g transform="matrix(0.5,0,0,-0.5,0,0)"><path d="M569 -20Q304 -20 94 102L160 317Q254 265 364 233Q475 201 580 201Q709 201 775 256Q841 312 841 416Q841 554 657 607Q644 611 584 628Q524 646 471 662Q419 679 396 688Q101 792 101 1076Q101 1275 242 1383Q384 1491 618 1491Q883 1491 1075 1382L993 1184Q797 1272 629 1272Q508 1272 446 1229Q385 1187 381 1088Q381 966 502 929Q526 920 620 890Q714 860 742 851Q943 785 1029 687Q1116 589 1116 414Q1116 205 968 92Q820 -20 569 -20ZM1469 0L1186 0L1725 1466L2020 1466L2551 0L2273 0L2128 414L1615 414L1469 0ZM1874 1212L1683 616L2059 616Q1879 1193 1874 1212ZM3345 -21Q3024 -21 2836 181Q2648 383 2648 739Q2648 1077 2844 1281Q3041 1486 3359 1486Q3616 1486 3794 1367L3709 1162Q3538 1267 3365 1267Q3163 1267 3045 1121Q2928 976 2928 731Q2928 477 3041 338Q3155 199 3365 199Q3549 199 3730 291L3766 79Q3598 -21 3345 -21Z" fill="#ffffff" style=""></path></g></g></g></svg>